<svg id="mermaid-1786871493865" width="100%" xmlns="http://www.w3.org/2000/svg" xmlns:xlink="http://www.w3.org/1999/xlink" style="max-width: 1113.5625px;" viewBox="-8 -8 1113.5625 594" role="graphics-document document" aria-roledescription="flowchart-v2"><style>#mermaid-1786871493865{font-family:"trebuchet ms",verdana,arial,sans-serif;font-size:16px;fill:#ccc;}#mermaid-1786871493865 .error-icon{fill:#a44141;}#mermaid-1786871493865 .error-text{fill:#ddd;stroke:#ddd;}#mermaid-1786871493865 .edge-thickness-normal{stroke-width:2px;}#mermaid-1786871493865 .edge-thickness-thick{stroke-width:3.5px;}#mermaid-1786871493865 .edge-pattern-solid{stroke-dasharray:0;}#mermaid-1786871493865 .edge-pattern-dashed{stroke-dasharray:3;}#mermaid-1786871493865 .edge-pattern-dotted{stroke-dasharray:2;}#mermaid-1786871493865 .marker{fill:lightgrey;stroke:lightgrey;}#mermaid-1786871493865 .marker.cross{stroke:lightgrey;}#mermaid-1786871493865 svg{font-family:"trebuchet ms",verdana,arial,sans-serif;font-size:16px;}#mermaid-1786871493865 .label{font-family:"trebuchet ms",verdana,arial,sans-serif;color:#ccc;}#mermaid-1786871493865 .cluster-label text{fill:#F9FFFE;}#mermaid-1786871493865 .cluster-label span,#mermaid-1786871493865 p{color:#F9FFFE;}#mermaid-1786871493865 .label text,#mermaid-1786871493865 span,#mermaid-1786871493865 p{fill:#ccc;color:#ccc;}#mermaid-1786871493865 .node rect,#mermaid-1786871493865 .node circle,#mermaid-1786871493865 .node ellipse,#mermaid-1786871493865 .node polygon,#mermaid-1786871493865 .node path{fill:#1f2020;stroke:#81B1DB;stroke-width:1px;}#mermaid-1786871493865 .flowchart-label text{text-anchor:middle;}#mermaid-1786871493865 .node .katex path{fill:#000;stroke:#000;stroke-width:1px;}#mermaid-1786871493865 .node .label{text-align:center;}#mermaid-1786871493865 .node.clickable{cursor:pointer;}#mermaid-1786871493865 .arrowheadPath{fill:lightgrey;}#mermaid-1786871493865 .edgePath .path{stroke:lightgrey;stroke-width:2.0px;}#mermaid-1786871493865 .flowchart-link{stroke:lightgrey;fill:none;}#mermaid-1786871493865 .edgeLabel{background-color:hsl(0, 0%, 34.4117647059%);text-align:center;}#mermaid-1786871493865 .edgeLabel rect{opacity:0.5;background-color:hsl(0, 0%, 34.4117647059%);fill:hsl(0, 0%, 34.4117647059%);}#mermaid-1786871493865 .labelBkg{background-color:rgba(87.75, 87.75, 87.75, 0.5);}#mermaid-1786871493865 .cluster rect{fill:hsl(180, 1.5873015873%, 28.3529411765%);stroke:rgba(255, 255, 255, 0.25);stroke-width:1px;}#mermaid-1786871493865 .cluster text{fill:#F9FFFE;}#mermaid-1786871493865 .cluster span,#mermaid-1786871493865 p{color:#F9FFFE;}#mermaid-1786871493865 div.mermaidTooltip{position:absolute;text-align:center;max-width:200px;padding:2px;font-family:"trebuchet ms",verdana,arial,sans-serif;font-size:12px;background:hsl(20, 1.5873015873%, 12.3529411765%);border:1px solid rgba(255, 255, 255, 0.25);border-radius:2px;pointer-events:none;z-index:100;}#mermaid-1786871493865 .flowchartTitleText{text-anchor:middle;font-size:18px;fill:#ccc;}#mermaid-1786871493865 :root{--mermaid-font-family:"trebuchet ms",verdana,arial,sans-serif;}</style><g><marker id="mermaid-1786871493865_flowchart-pointEnd" class="marker flowchart" viewBox="0 0 10 10" refX="6" refY="5" markerUnits="userSpaceOnUse" markerWidth="12" markerHeight="12" orient="auto"><path d="M 0 0 L 10 5 L 0 10 z" class="arrowMarkerPath" style="stroke-width: 1; stroke-dasharray: 1, 0;"></path></marker><marker id="mermaid-1786871493865_flowchart-pointStart" class="marker flowchart" viewBox="0 0 10 10" refX="4.5" refY="5" markerUnits="userSpaceOnUse" markerWidth="12" markerHeight="12" orient="auto"><path d="M 0 5 L 10 10 L 10 0 z" class="arrowMarkerPath" style="stroke-width: 1; stroke-dasharray: 1, 0;"></path></marker><marker id="mermaid-1786871493865_flowchart-circleEnd" class="marker flowchart" viewBox="0 0 10 10" refX="11" refY="5" markerUnits="userSpaceOnUse" markerWidth="11" markerHeight="11" orient="auto"><circle cx="5" cy="5" r="5" class="arrowMarkerPath" style="stroke-width: 1; stroke-dasharray: 1, 0;"></circle></marker><marker id="mermaid-1786871493865_flowchart-circleStart" class="marker flowchart" viewBox="0 0 10 10" refX="-1" refY="5" markerUnits="userSpaceOnUse" markerWidth="11" markerHeight="11" orient="auto"><circle cx="5" cy="5" r="5" class="arrowMarkerPath" style="stroke-width: 1; stroke-dasharray: 1, 0;"></circle></marker><marker id="mermaid-1786871493865_flowchart-crossEnd" class="marker cross flowchart" viewBox="0 0 11 11" refX="12" refY="5.2" markerUnits="userSpaceOnUse" markerWidth="11" markerHeight="11" orient="auto"><path d="M 1,1 l 9,9 M 10,1 l -9,9" class="arrowMarkerPath" style="stroke-width: 2; stroke-dasharray: 1, 0;"></path></marker><marker id="mermaid-1786871493865_flowchart-crossStart" class="marker cross flowchart" viewBox="0 0 11 11" refX="-1" refY="5.2" markerUnits="userSpaceOnUse" markerWidth="11" markerHeight="11" orient="auto"><path d="M 1,1 l 9,9 M 10,1 l -9,9" class="arrowMarkerPath" style="stroke-width: 2; stroke-dasharray: 1, 0;"></path></marker><g class="root"><g class="clusters"><g class="cluster default flowchart-label" id="双远程同步(纪律34)"><rect style="" rx="0" ry="0" x="437.03125" y="0" width="531.53125" height="227"></rect><g class="cluster-label" transform="translate(632.53125, 0)"><foreignObject width="140.53125" height="21"><div xmlns="http://www.w3.org/1999/xhtml" style="display: inline-block; white-space: nowrap;"><span class="nodeLabel">双远程同步(纪律34)</span></div></foreignObject></g></g><g class="cluster default flowchart-label" id="依赖打包(纪律33)"><rect style="" rx="0" ry="0" x="437.03125" y="247" width="287.78125" height="331"></rect><g class="cluster-label" transform="translate(518.65625, 247)"><foreignObject width="124.53125" height="21"><div xmlns="http://www.w3.org/1999/xhtml" style="display: inline-block; white-space: nowrap;"><span class="nodeLabel">依赖打包(纪律33)</span></div></foreignObject></g></g><g class="cluster default flowchart-label" id="本地开发"><rect style="" rx="0" ry="0" x="0" y="21.5" width="387.03125" height="514.5"></rect><g class="cluster-label" transform="translate(161.515625, 21.5)"><foreignObject width="64" height="21"><div xmlns="http://www.w3.org/1999/xhtml" style="display: inline-block; white-space: nowrap;"><span class="nodeLabel">本地开发</span></div></foreignObject></g></g></g><g class="edgePaths"><path d="M158.797,308.5L162.964,308.5C167.13,308.5,175.464,308.5,182.914,308.5C190.364,308.5,196.93,308.5,200.214,308.5L203.497,308.5" id="L-dev-docker-0" class=" edge-thickness-normal edge-pattern-solid flowchart-link LS-dev LE-docker" style="fill:none;" marker-end="url(#mermaid-1786871493865_flowchart-pointEnd)"></path><path d="M362.031,308.5L366.198,308.5C370.365,308.5,378.698,308.5,387.031,308.5C395.365,308.5,403.698,308.5,412.031,308.5C420.365,308.5,428.698,308.5,436.148,308.5C443.598,308.5,450.165,308.5,453.448,308.5L456.731,308.5" id="L-docker-pip-0" class=" edge-thickness-normal edge-pattern-solid flowchart-link LS-docker LE-pip" style="fill:none;" marker-end="url(#mermaid-1786871493865_flowchart-pointEnd)"></path><path d="M311.558,335L324.137,347.75C336.716,360.5,361.874,386,378.619,398.75C395.365,411.5,403.698,411.5,412.031,411.5C420.365,411.5,428.698,411.5,445.291,411.5C461.884,411.5,486.738,411.5,499.164,411.5L511.591,411.5" id="L-docker-sys-0" class=" edge-thickness-normal edge-pattern-solid flowchart-link LS-docker LE-sys" style="fill:none;" marker-end="url(#mermaid-1786871493865_flowchart-pointEnd)"></path><path d="M298.423,335L313.191,365.083C327.959,395.167,357.495,455.333,376.43,485.417C395.365,515.5,403.698,515.5,412.031,515.5C420.365,515.5,428.698,515.5,442.697,515.5C456.697,515.5,476.363,515.5,486.195,515.5L496.028,515.5" id="L-docker-model-0" class=" edge-thickness-normal edge-pattern-solid flowchart-link LS-docker LE-model" style="fill:none;" marker-end="url(#mermaid-1786871493865_flowchart-pointEnd)"></path><path d="M296.316,282L311.435,245.25C326.555,208.5,356.793,135,376.079,98.25C395.365,61.5,403.698,61.5,412.031,61.5C420.365,61.5,428.698,61.5,443.167,61.5C457.637,61.5,478.243,61.5,488.546,61.5L498.848,61.5" id="L-docker-gh-0" class=" edge-thickness-normal edge-pattern-solid flowchart-link LS-docker LE-gh" style="fill:none;" marker-end="url(#mermaid-1786871493865_flowchart-pointEnd)"></path><path d="M304.114,282L317.934,262.417C331.753,242.833,359.392,203.667,377.378,184.083C395.365,164.5,403.698,164.5,412.031,164.5C420.365,164.5,428.698,164.5,437.998,164.5C447.298,164.5,457.566,164.5,462.699,164.5L467.833,164.5" id="L-docker-ms-0" class=" edge-thickness-normal edge-pattern-solid flowchart-link LS-docker LE-ms" style="fill:none;" marker-end="url(#mermaid-1786871493865_flowchart-pointEnd)"></path><path d="M688.711,164.5L694.728,164.5C700.745,164.5,712.779,164.5,722.962,164.5C733.146,164.5,741.479,164.5,748.929,164.5C756.379,164.5,762.946,164.5,766.229,164.5L769.513,164.5" id="L-ms-deploy-0" class=" edge-thickness-normal edge-pattern-solid flowchart-link LS-ms LE-deploy" style="fill:none;" marker-end="url(#mermaid-1786871493865_flowchart-pointEnd)"></path><path d="M943.563,164.5L947.729,164.5C951.896,164.5,960.229,164.5,968.563,164.5C976.896,164.5,985.229,164.5,992.679,164.5C1000.129,164.5,1006.696,164.5,1009.979,164.5L1013.263,164.5" id="L-deploy-user-0" class=" edge-thickness-normal edge-pattern-solid flowchart-link LS-deploy LE-user" style="fill:none;" marker-end="url(#mermaid-1786871493865_flowchart-pointEnd)"></path></g><g class="edgeLabels"><g class="edgeLabel"><g class="label" transform="translate(0, 0)"><foreignObject width="0" height="0"><div xmlns="http://www.w3.org/1999/xhtml" style="display: inline-block; white-space: nowrap;"><span class="edgeLabel"></span></div></foreignObject></g></g><g class="edgeLabel"><g class="label" transform="translate(0, 0)"><foreignObject width="0" height="0"><div xmlns="http://www.w3.org/1999/xhtml" style="display: inline-block; white-space: nowrap;"><span class="edgeLabel"></span></div></foreignObject></g></g><g class="edgeLabel"><g class="label" transform="translate(0, 0)"><foreignObject width="0" height="0"><div xmlns="http://www.w3.org/1999/xhtml" style="display: inline-block; white-space: nowrap;"><span class="edgeLabel"></span></div></foreignObject></g></g><g class="edgeLabel"><g class="label" transform="translate(0, 0)"><foreignObject width="0" height="0"><div xmlns="http://www.w3.org/1999/xhtml" style="display: inline-block; white-space: nowrap;"><span class="edgeLabel"></span></div></foreignObject></g></g><g class="edgeLabel"><g class="label" transform="translate(0, 0)"><foreignObject width="0" height="0"><div xmlns="http://www.w3.org/1999/xhtml" style="display: inline-block; white-space: nowrap;"><span class="edgeLabel"></span></div></foreignObject></g></g><g class="edgeLabel"><g class="label" transform="translate(0, 0)"><foreignObject width="0" height="0"><div xmlns="http://www.w3.org/1999/xhtml" style="display: inline-block; white-space: nowrap;"><span class="edgeLabel"></span></div></foreignObject></g></g><g class="edgeLabel"><g class="label" transform="translate(0, 0)"><foreignObject width="0" height="0"><div xmlns="http://www.w3.org/1999/xhtml" style="display: inline-block; white-space: nowrap;"><span class="edgeLabel"></span></div></foreignObject></g></g><g class="edgeLabel"><g class="label" transform="translate(0, 0)"><foreignObject width="0" height="0"><div xmlns="http://www.w3.org/1999/xhtml" style="display: inline-block; white-space: nowrap;"><span class="edgeLabel"></span></div></foreignObject></g></g></g><g class="nodes"><g class="node default default flowchart-label" id="flowchart-gh-5" data-node="true" data-id="gh" transform="translate(580.921875, 61.5)"><rect class="basic label-container" style="" rx="0" ry="0" x="-76.7734375" y="-26.5" width="153.546875" height="53"></rect><g class="label" style="" transform="translate(-69.2734375, -19)"><rect></rect><foreignObject width="138.546875" height="38"><div xmlns="http://www.w3.org/1999/xhtml" style="display: inline-block; white-space: nowrap;"><span class="nodeLabel">GitHub<br>sync_check.py --fix</span></div></foreignObject></g></g><g class="node default default flowchart-label" id="flowchart-ms-6" data-node="true" data-id="ms" transform="translate(580.921875, 164.5)"><rect class="basic label-container" style="" rx="0" ry="0" x="-107.7890625" y="-26.5" width="215.578125" height="53"></rect><g class="label" style="" transform="translate(-100.2890625, -19)"><rect></rect><foreignObject width="200.578125" height="38"><div xmlns="http://www.w3.org/1999/xhtml" style="display: inline-block; white-space: nowrap;"><span class="nodeLabel">ModelScope<br>git push modelscope master</span></div></foreignObject></g></g><g class="node default default flowchart-label" id="flowchart-deploy-7" data-node="true" data-id="deploy" transform="translate(859.1875, 164.5)"><rect class="basic label-container" style="" rx="0" ry="0" x="-84.375" y="-27.5" width="168.75" height="55"></rect><g class="label" style="" transform="translate(-76.875, -20)"><rect></rect><foreignObject width="153.75" height="40"><div xmlns="http://www.w3.org/1999/xhtml" style="display: inline-block; white-space: nowrap;"><span class="nodeLabel">魔搭创空间<br>ms_deploy.json :7860</span></div></foreignObject></g></g><g class="node default default flowchart-label" id="flowchart-pip-2" data-node="true" data-id="pip" transform="translate(580.921875, 308.5)"><rect class="basic label-container" style="" rx="0" ry="0" x="-118.890625" y="-26.5" width="237.78125" height="53"></rect><g class="label" style="" transform="translate(-111.390625, -19)"><rect></rect><foreignObject width="222.78125" height="38"><div xmlns="http://www.w3.org/1999/xhtml" style="display: inline-block; white-space: nowrap;"><span class="nodeLabel">requirements.txt<br>onnxruntime/rapidocr/whisper</span></div></foreignObject></g></g><g class="node default default flowchart-label" id="flowchart-sys-3" data-node="true" data-id="sys" transform="translate(580.921875, 411.5)"><rect class="basic label-container" style="" rx="0" ry="0" x="-64.03125" y="-26.5" width="128.0625" height="53"></rect><g class="label" style="" transform="translate(-56.53125, -19)"><rect></rect><foreignObject width="113.0625" height="38"><div xmlns="http://www.w3.org/1999/xhtml" style="display: inline-block; white-space: nowrap;"><span class="nodeLabel">Dockerfile apt<br>ffmpeg/libcairo</span></div></foreignObject></g></g><g class="node default default flowchart-label" id="flowchart-model-4" data-node="true" data-id="model" transform="translate(580.921875, 515.5)"><rect class="basic label-container" style="" rx="0" ry="0" x="-79.59375" y="-27.5" width="159.1875" height="55"></rect><g class="label" style="" transform="translate(-72.09375, -20)"><rect></rect><foreignObject width="144.1875" height="40"><div xmlns="http://www.w3.org/1999/xhtml" style="display: inline-block; white-space: nowrap;"><span class="nodeLabel">模型文件<br>bge ONNX / whisper</span></div></foreignObject></g></g><g class="node default default flowchart-label" id="flowchart-dev-0" data-node="true" data-id="dev" transform="translate(91.8984375, 308.5)"><rect class="basic label-container" style="" rx="0" ry="0" x="-66.8984375" y="-27.5" width="133.796875" height="55"></rect><g class="label" style="" transform="translate(-59.3984375, -20)"><rect></rect><foreignObject width="118.796875" height="40"><div xmlns="http://www.w3.org/1999/xhtml" style="display: inline-block; white-space: nowrap;"><span class="nodeLabel">本地 :5000<br>python server.py</span></div></foreignObject></g></g><g class="node default default flowchart-label" id="flowchart-docker-1" data-node="true" data-id="docker" transform="translate(285.4140625, 308.5)"><rect class="basic label-container" style="" rx="0" ry="0" x="-76.6171875" y="-26.5" width="153.234375" height="53"></rect><g class="label" style="" transform="translate(-69.1171875, -19)"><rect></rect><foreignObject width="138.234375" height="38"><div xmlns="http://www.w3.org/1999/xhtml" style="display: inline-block; white-space: nowrap;"><span class="nodeLabel">Docker Compose<br>docker compose up</span></div></foreignObject></g></g><g class="node default default flowchart-label" id="flowchart-user-23" data-node="true" data-id="user" transform="translate(1058.0625, 164.5)"><rect class="basic label-container" style="" rx="0" ry="0" x="-39.5" y="-18" width="79" height="36"></rect><g class="label" style="" transform="translate(-32, -10.5)"><rect></rect><foreignObject width="64" height="21"><div xmlns="http://www.w3.org/1999/xhtml" style="display: inline-block; white-space: nowrap;"><span class="nodeLabel">公网用户</span></div></foreignObject></g></g></g></g></g></svg>